<svg viewBox="0 0 375 206" fill="none" xmlns="http://www.w3.org/2000/svg"><circle cx="140.427" cy="96.427" r="2.427" fill="#5A666B"/><path d="M55.77 35.594a1.214 1.214 0 11-2.428 0 1.214 1.214 0 012.427 0zm25.97 22.574a1.214 1.214 0 11-2.426 0 1.214 1.214 0 012.427 0zm127.673 29.126a1.213 1.213 0 11-2.426 0 1.213 1.213 0 012.426 0zm109.226-37.137a1.213 1.213 0 11-2.427 0 1.213 1.213 0 012.427 0zm-97.575-5.582a1.213 1.213 0 11-2.427 0 1.213 1.213 0 012.427 0z" fill="#5A666B"/><circle cx="132.713" cy="41.419" r="2.427" fill="#5A666B"/><circle cx="177.374" cy="70.546" r="2.427" fill="#5A666B"/><path d="M36.109 39.235a3.884 3.884 0 11-7.767 0 3.884 3.884 0 017.767 0zm74.273 41.506a3.884 3.884 0 11-7.767 0 3.884 3.884 0 017.767 0zm-7.767-47.331a3.884 3.884 0 11-7.767 0 3.884 3.884 0 017.767 0zm166.023 4.611a3.884 3.884 0 11-7.767 0 3.884 3.884 0 017.767 0zm86.41 6.797a3.884 3.884 0 11-7.768 0 3.884 3.884 0 017.768 0zm-.281-40.934a3.884 3.884 0 11-7.768 0 3.884 3.884 0 017.768 0z" fill="#5A666B"/><path d="M36.37 89.188C23 81 6.5 85.5 0 95v111l375 .001V72.34C315 51 202.305 135.007 201.397 133.717c-14.218-20.219-34.698-15.646-43.161-10.832C128 137 111.175 135 36.369 89.188z" fill="#434E53"/></svg>